<?xml version="1.0" encoding="UTF-8"?>
<svg id="Layer_1" xmlns="http://www.w3.org/2000/svg" version="1.1" viewBox="0 0 892.6 360">
  <!-- Generator: Adobe Illustrator 29.0.1, SVG Export Plug-In . SVG Version: 2.1.0 Build 192)  -->
  <g>
    <path d="M451.9,34.1c2.3,0,3.5,1.2,3.5,3.5v5.8c0,2.3-1.2,3.4-3.5,3.4h-33v19h27.7c2.3,0,3.4,1.2,3.4,3.6v5.7c0,2.3-1.1,3.4-3.4,3.4h-27.7v23.1c0,2.3-1.2,3.5-3.5,3.5h-6.9c-2.3,0-3.5-1.2-3.5-3.5v-60.6c0-1.9.7-3.5,2-4.8,1.3-1.3,2.9-2,4.9-2h40.2Z" fill="#f2ebe0"/>
    <path d="M473.2,105c-2.3,0-3.5-1.2-3.5-3.5v-63.9c0-2.3,1.2-3.5,3.5-3.5h6.9c2.3,0,3.5,1.2,3.5,3.5v63.9c0,2.3-1.2,3.5-3.5,3.5h-6.9Z" fill="#f2ebe0"/>
    <path d="M554.6,100.1c.5.9.7,1.7.7,2.2,0,1.8-1.2,2.6-3.5,2.6h-6.7c-2,0-3.4-.8-4.2-2.4l-12.4-20.7h-14.5v19.6c0,2.3-1.2,3.5-3.5,3.5h-6.9c-2.3,0-3.5-1.2-3.5-3.5v-60.5c0-2,.7-3.6,2-4.9,1.3-1.3,3-2,5-2h21.4c7.9,0,14.4,2.3,19.4,6.8,5,4.6,7.4,10.4,7.4,17.4s-1.2,8.7-3.5,12.4c-2.3,3.7-5.5,6.5-9.6,8.5l12.6,21ZM513.9,46.3v24h13.4c4.2,0,7.5-1.1,9.9-3.4,2.4-2.2,3.6-5.1,3.6-8.7s-1.2-6.4-3.6-8.7c-2.4-2.2-5.7-3.4-9.9-3.4h-13.4Z" fill="#f2ebe0"/>
    <path d="M594.6,105.8c-8,0-16.1-1.9-24.2-5.7-1.5-.7-2.2-1.7-2.2-3s.2-1.4.5-2l2.2-5c.7-1.4,1.6-2.2,2.8-2.2s1.3.2,2.2.6c7.2,2.9,13.6,4.4,19.2,4.4s6.9-.7,8.8-2.2c2-1.5,3-3.3,3-5.5s-.9-4.2-2.8-5.4c-1.9-1.3-5.1-2.6-9.7-4l-3.9-1.2c-2.6-.8-4.8-1.5-6.5-2.2-1.8-.7-3.7-1.6-5.8-2.7-2.1-1.2-3.8-2.4-5.1-3.8-1.3-1.4-2.4-3.1-3.3-5.2-.9-2.1-1.3-4.4-1.3-7,0-5.9,2.4-10.8,7.1-14.7,4.8-3.9,11.1-5.9,19.1-5.9s15.1,1.8,23.1,5.3c1.6.8,2.3,1.8,2.3,3.1s-.2,1.1-.5,1.9l-2.2,4.8c-.7,1.5-1.7,2.2-2.8,2.2s-1.2,0-1.7-.3c-6.3-2.8-12.5-4.2-18.6-4.2s-6.7.7-8.7,2.1c-2,1.4-3,3.1-3,5.2s.9,4,2.8,5.2c1.9,1.2,5.1,2.5,9.7,3.9l4.1,1.3c3.3,1,5.9,1.9,8,2.8,2.1.9,4.3,2.2,6.7,3.8,2.4,1.6,4.2,3.6,5.4,6.1,1.2,2.4,1.8,5.3,1.8,8.6,0,6.1-2.4,11-7.3,15-4.9,3.9-11.3,5.9-19.2,5.9Z" fill="#f2ebe0"/>
    <path d="M685.9,34.1c2.3,0,3.5,1.2,3.5,3.5v5.8c0,2.3-1.2,3.5-3.5,3.5h-18.8v54.6c0,2.3-1.2,3.5-3.5,3.5h-7c-2.3,0-3.4-1.2-3.4-3.5v-54.6h-18.9c-2.3,0-3.5-1.2-3.5-3.5v-5.8c0-2.3,1.2-3.5,3.5-3.5h51.6Z" fill="#f2ebe0"/>
  </g>
  <g>
    <path d="M440,251.3c-.6-1.2-1.5-1.5-2.2-1.5s-.7,0-1.1.2c-3.6,1.4-6.6,2.1-9,2.1-4,0-7.3-1.5-9.8-4.4-2.6-2.9-3.9-6.8-3.9-11.5s1.3-8.6,3.9-11.6c2.5-2.9,5.9-4.4,9.8-4.4s5.5.7,9.1,2.1c.4.1.7.2,1.1.2.6,0,1.5-.3,2.2-1.5l1.4-3c.2-.4.3-.9.3-1.3,0-.8-.3-1.8-1.7-2.3-4.6-1.9-8.9-2.9-12.7-2.9-6.5,0-11.9,2.3-16.1,7-4.2,4.6-6.3,10.6-6.3,17.7s2.1,12.9,6.3,17.5c4.2,4.6,9.6,7,16.1,7s8.4-1,12.8-2.9c1.3-.6,1.6-1.5,1.6-2.2s0-.5-.4-1.3l-1.4-3Z" fill="#f2ebe0"/>
    <path d="M490.5,212.1h-3.7c-1.6,0-2.6.9-2.6,2.6v25.7c0,3.6-1,6.5-3.1,8.7-2.1,2.2-4.7,3.3-8,3.3s-5.9-1.1-7.9-3.3c-2-2.2-3-5.1-3-8.7v-25.7c0-1.6-1-2.6-2.6-2.6h-3.7c-1.6,0-2.6.9-2.6,2.6v25.6c0,6.1,1.9,11,5.6,14.8,3.7,3.8,8.5,5.7,14.3,5.7s10.6-1.9,14.3-5.7c3.7-3.8,5.6-8.8,5.6-14.8v-25.6c0-1.6-.9-2.6-2.6-2.6Z" fill="#f2ebe0"/>
    <path d="M536.7,252h-22.1v-37.4c0-1.6-.9-2.6-2.6-2.6h-3.8c-1.6,0-2.6.9-2.6,2.6v40.9c0,1.4.5,2.5,1.4,3.5.9.9,2.1,1.4,3.4,1.4h26.2c1.7,0,2.6-.9,2.6-2.6v-3.2c0-1.6-1-2.6-2.6-2.6Z" fill="#f2ebe0"/>
    <path d="M575.1,212.1h-34.2c-1.6,0-2.6.9-2.6,2.6v3.2c0,1.6.9,2.6,2.6,2.6h12.7v37.4c0,1.6.9,2.6,2.6,2.6h3.7c1.7,0,2.6-.9,2.6-2.6v-37.4h12.7c1.6,0,2.6-.9,2.6-2.6v-3.2c0-1.6-.9-2.6-2.6-2.6Z" fill="#f2ebe0"/>
    <path d="M625.3,212.1h-3.7c-1.6,0-2.6.9-2.6,2.6v25.7c0,3.6-1,6.5-3.1,8.7-2.1,2.2-4.7,3.3-8,3.3s-5.9-1.1-7.9-3.3c-2-2.2-3-5.1-3-8.7v-25.7c0-1.6-1-2.6-2.6-2.6h-3.7c-1.6,0-2.6.9-2.6,2.6v25.6c0,6.1,1.9,11,5.6,14.8,3.7,3.8,8.5,5.7,14.3,5.7s10.6-1.9,14.3-5.7c3.7-3.8,5.6-8.8,5.6-14.8v-25.6c0-1.6-.9-2.6-2.6-2.6Z" fill="#f2ebe0"/>
    <path d="M676.8,256.7l-8.7-14.2c2.6-1.2,4.8-3.1,6.3-5.4,1.7-2.5,2.5-5.4,2.5-8.6,0-4.7-1.7-8.7-5-11.8-3.3-3.1-7.7-4.6-13-4.6h-13.5c-1.4,0-2.5.5-3.5,1.4-.9.9-1.4,2.1-1.4,3.5v40.8c0,1.6.9,2.6,2.6,2.6h3.8c1.6,0,2.6-.9,2.6-2.6v-13.5h9.9l8.8,14.4c.6,1.1,1.6,1.7,2.9,1.7h3.6c2.3,0,2.6-1.4,2.6-2s-.1-.8-.4-1.5c0,0,0,0,0,0ZM667.9,228.4c0,2.5-.8,4.4-2.5,6-1.7,1.5-4.1,2.3-7,2.3h-9v-16.5h9c2.9,0,5.3.8,7,2.4,1.7,1.6,2.6,3.5,2.6,5.9Z" fill="#f2ebe0"/>
    <path d="M730.3,256.8l-15.6-41.2c-1-2.7-3.1-4.1-6.1-4.1s-5,1.4-6,4.1l-15.5,41.2c-.2.4-.3.9-.3,1.3,0,.7.3,2.2,2.6,2.2h3.6c1.4,0,2.4-.7,2.8-2l2.7-7.6h20.3l2.7,7.6c.4,1.3,1.4,2,2.9,2h3.5c2.4,0,2.6-1.6,2.6-2.2s0-.8-.2-1.2c0,0,0,0,0,0ZM716,242.7h-14.5l7.2-20.1,7.2,20.1Z" fill="#f2ebe0"/>
    <path d="M771.8,252h-22.1v-37.4c0-1.6-.9-2.6-2.6-2.6h-3.8c-1.6,0-2.6.9-2.6,2.6v40.9c0,1.4.5,2.5,1.4,3.5.9.9,2.1,1.4,3.4,1.4h26.2c1.7,0,2.6-.9,2.6-2.6v-3.2c0-1.6-1-2.6-2.6-2.6Z" fill="#f2ebe0"/>
  </g>
  <g>
    <path d="M440,317.1c-.6-1.2-1.5-1.5-2.2-1.5s-.7,0-1.1.2c-3.6,1.4-6.6,2.1-9,2.1-4,0-7.3-1.5-9.8-4.4-2.6-2.9-3.9-6.8-3.9-11.5s1.3-8.6,3.9-11.6c2.5-2.9,5.9-4.4,9.8-4.4s5.5.7,9.1,2.1c.4.1.7.2,1.1.2.6,0,1.5-.3,2.2-1.5l1.4-3c.2-.4.3-.9.3-1.3,0-.8-.3-1.8-1.7-2.3-4.6-1.9-8.9-2.9-12.7-2.9-6.5,0-11.9,2.3-16.1,7-4.2,4.6-6.3,10.6-6.3,17.7s2.1,12.9,6.3,17.5c4.2,4.6,9.6,7,16.1,7s8.4-1,12.8-2.9c1.3-.6,1.6-1.5,1.6-2.2s0-.5-.4-1.3l-1.4-3Z" fill="#f2ebe0"/>
    <path d="M471,277.4c-6.5,0-11.9,2.3-16.1,7-4.2,4.6-6.3,10.6-6.3,17.7s2.1,12.9,6.3,17.5c4.2,4.6,9.6,7,16.1,7s11.9-2.3,16.1-7c4.2-4.6,6.3-10.5,6.3-17.6s-2.1-13.1-6.3-17.7c-4.2-4.6-9.6-7-16.1-7ZM480.7,313.6c-2.5,2.9-5.6,4.4-9.6,4.4s-7.1-1.4-9.6-4.4c-2.5-2.9-3.8-6.8-3.8-11.5s1.3-8.7,3.7-11.6c2.5-3,5.6-4.4,9.6-4.4s7.1,1.4,9.6,4.4c2.5,2.9,3.7,6.9,3.7,11.7s-1.3,8.6-3.7,11.5Z" fill="#f2ebe0"/>
    <path d="M541.7,277.8h-3.7c-1.6,0-2.6.9-2.6,2.6v25.7c0,3.6-1,6.5-3.1,8.7-2.1,2.2-4.7,3.3-8,3.3s-5.9-1.1-7.9-3.3c-2-2.2-3-5.1-3-8.7v-25.7c0-1.6-1-2.6-2.6-2.6h-3.7c-1.6,0-2.6.9-2.6,2.6v25.6c0,6.1,1.9,11,5.6,14.8,3.7,3.8,8.5,5.7,14.3,5.7s10.6-1.9,14.3-5.7c3.7-3.8,5.6-8.8,5.6-14.8v-25.6c0-1.6-.9-2.6-2.6-2.6Z" fill="#f2ebe0"/>
    <path d="M592.8,277.8h-3.8c-1.6,0-2.6.9-2.6,2.6v30.9l-18.2-31c-1.2-1.9-3-2.9-5.5-2.9s-3,.5-4.1,1.5c-1.1,1-1.7,2.5-1.7,4.3v40.4c0,1.6,1,2.6,2.6,2.6h3.7c1.6,0,2.6-.9,2.6-2.6v-30.7l18.2,30.9c1.2,1.9,3,2.9,5.4,2.9s3.1-.5,4.2-1.5c1.1-1,1.7-2.5,1.7-4.3v-40.4c0-1.6-.9-2.6-2.6-2.6Z" fill="#f2ebe0"/>
    <path d="M641.7,317.1c-.6-1.2-1.5-1.5-2.2-1.5s-.7,0-1.1.2c-3.6,1.4-6.6,2.1-9,2.1-4,0-7.3-1.5-9.8-4.4-2.6-2.9-3.9-6.8-3.9-11.5s1.3-8.6,3.9-11.6c2.5-2.9,5.9-4.4,9.8-4.4s5.5.7,9.1,2.1c.4.1.7.2,1.1.2.6,0,1.5-.3,2.2-1.5l1.4-3c.2-.4.3-.9.3-1.3,0-.8-.3-1.8-1.7-2.3-4.6-1.9-8.9-2.9-12.7-2.9-6.5,0-11.9,2.3-16.1,7-4.2,4.6-6.3,10.6-6.3,17.7s2.1,12.9,6.3,17.5c4.2,4.6,9.6,7,16.1,7s8.4-1,12.8-2.9c1.3-.6,1.6-1.5,1.6-2.2s0-.5-.4-1.3l-1.4-3Z" fill="#f2ebe0"/>
    <rect x="655.3" y="277.8" width="8.9" height="48.3" rx="2.6" ry="2.6" fill="#f2ebe0"/>
    <path d="M708.1,317.8h-22.1v-37.4c0-1.6-.9-2.6-2.6-2.6h-3.8c-1.6,0-2.6.9-2.6,2.6v40.9c0,1.4.5,2.5,1.4,3.5.9.9,2.1,1.4,3.4,1.4h26.2c1.7,0,2.6-.9,2.6-2.6v-3.2c0-1.6-1-2.6-2.6-2.6Z" fill="#f2ebe0"/>
  </g>
  <g>
    <path d="M432.8,123.2c7.9,0,14.4,2.3,19.4,6.8,5,4.6,7.4,10.3,7.4,17.3s-2.5,12.8-7.4,17.4c-5,4.5-11.4,6.8-19.4,6.8h-13.9v19.2c0,2.3-1.2,3.5-3.5,3.5h-6.9c-2.3,0-3.5-1.2-3.5-3.5v-60.5c0-2,.7-3.6,2-4.9,1.3-1.3,3-2,5-2h20.9ZM431.7,159.3c4.2,0,7.5-1.1,9.9-3.4,2.4-2.2,3.7-5.1,3.7-8.6s-1.2-6.3-3.7-8.6c-2.4-2.2-5.8-3.4-9.9-3.4h-12.8v23.9h12.8Z" fill="#f2ebe0"/>
    <path d="M519.6,135.9h-33v16.4h27.7c2.3,0,3.4,1.2,3.4,3.5v5.7c0,2.3-1.1,3.5-3.4,3.5h-27.7v16.4h33c2.3,0,3.5,1.1,3.5,3.4v5.8c0,2.3-1.2,3.5-3.5,3.5h-40.2c-2,0-3.6-.7-4.9-2-1.3-1.3-2-2.9-2-4.8v-57.3c0-1.9.7-3.5,2-4.8,1.3-1.3,2.9-2,4.9-2h40.2c2.3,0,3.5,1.2,3.5,3.5v5.8c0,2.3-1.2,3.4-3.5,3.4Z" fill="#f2ebe0"/>
    <path d="M591,184.7c-6.4,6.8-14.4,10.2-24.1,10.2s-17.7-3.4-24-10.2c-6.3-6.8-9.5-15.5-9.5-26s3.2-19.2,9.5-26c6.3-6.8,14.3-10.2,24-10.2s17.7,3.4,24.1,10.2c6.4,6.8,9.5,15.5,9.5,26s-3.2,19.2-9.5,26ZM553,175.1c3.6,4.2,8.3,6.3,13.9,6.3s10.3-2.1,13.9-6.3c3.6-4.2,5.4-9.7,5.4-16.5s-1.8-12.3-5.4-16.5c-3.6-4.2-8.2-6.3-13.9-6.3s-10.3,2.1-13.9,6.3c-3.6,4.2-5.4,9.7-5.4,16.5s1.8,12.3,5.4,16.5Z" fill="#f2ebe0"/>
    <path d="M642.1,123.2c7.9,0,14.4,2.3,19.4,6.8,5,4.6,7.4,10.3,7.4,17.3s-2.5,12.8-7.4,17.4c-5,4.5-11.4,6.8-19.4,6.8h-13.9v19.2c0,2.3-1.2,3.5-3.5,3.5h-6.9c-2.3,0-3.5-1.2-3.5-3.5v-60.5c0-2,.7-3.6,2-4.9,1.3-1.3,3-2,5-2h20.9ZM641.1,159.3c4.2,0,7.5-1.1,9.9-3.4,2.4-2.2,3.7-5.1,3.7-8.6s-1.2-6.3-3.7-8.6c-2.4-2.2-5.8-3.4-9.9-3.4h-12.8v23.9h12.8Z" fill="#f2ebe0"/>
    <path d="M728.9,181.3c2.3,0,3.5,1.2,3.5,3.5v5.8c0,2.3-1.2,3.5-3.5,3.5h-40.2c-1.9,0-3.5-.7-4.8-2-1.3-1.3-2-2.9-2-4.8v-60.6c0-2.3,1.2-3.5,3.5-3.5h6.9c2.3,0,3.5,1.2,3.5,3.5v54.6h33Z" fill="#f2ebe0"/>
    <path d="M793.5,135.9h-33v16.4h27.7c2.3,0,3.4,1.2,3.4,3.5v5.7c0,2.3-1.1,3.5-3.4,3.5h-27.7v16.4h33c2.3,0,3.5,1.1,3.5,3.4v5.8c0,2.3-1.2,3.5-3.5,3.5h-40.2c-2,0-3.6-.7-4.9-2-1.3-1.3-2-2.9-2-4.8v-57.3c0-1.9.7-3.5,2-4.8,1.3-1.3,2.9-2,4.9-2h40.2c2.3,0,3.5,1.2,3.5,3.5v5.8c0,2.3-1.2,3.4-3.5,3.4Z" fill="#f2ebe0"/>
    <path d="M837.2,194.9c-8,0-16.1-1.9-24.2-5.7-1.5-.7-2.2-1.7-2.2-3s.2-1.4.5-2l2.2-5c.7-1.4,1.6-2.2,2.8-2.2s1.3.2,2.2.6c7.2,2.9,13.6,4.4,19.2,4.4s6.9-.7,8.8-2.2c2-1.5,3-3.3,3-5.5s-.9-4.2-2.8-5.4c-1.9-1.3-5.1-2.6-9.7-4l-3.9-1.2c-2.6-.8-4.8-1.5-6.5-2.2-1.8-.7-3.7-1.6-5.8-2.7-2.1-1.2-3.8-2.4-5.1-3.8-1.3-1.4-2.4-3.1-3.3-5.2-.9-2.1-1.3-4.4-1.3-7,0-5.9,2.4-10.8,7.1-14.7,4.8-3.9,11.1-5.9,19.1-5.9s15.1,1.8,23.1,5.3c1.6.8,2.3,1.8,2.3,3.1s-.2,1.1-.5,1.9l-2.2,4.8c-.7,1.5-1.7,2.2-2.8,2.2s-1.2,0-1.7-.3c-6.3-2.8-12.5-4.2-18.6-4.2s-6.7.7-8.7,2.1c-2,1.4-3,3.1-3,5.2s.9,4,2.8,5.2c1.9,1.2,5.1,2.5,9.7,3.9l4.1,1.3c3.3,1,5.9,1.9,8,2.8,2.1.9,4.3,2.2,6.7,3.8,2.4,1.6,4.2,3.6,5.4,6.1,1.2,2.4,1.8,5.3,1.8,8.6,0,6.1-2.4,11-7.3,15-4.9,3.9-11.3,5.9-19.2,5.9Z" fill="#f2ebe0"/>
    <path d="M892.6,130.9c0-4.5-3.7-8.2-8.2-8.2h0c-2.2,0-4.2.8-5.8,2.4-1.6,1.5-2.4,3.6-2.4,5.8,0,3.4,2.1,6.4,5.1,7.6l-5.8,10.6h7.2v-.2c.2,0,5.7-6.9,9.2-14.6h0c.5-1.1.7-2.2.7-3.3" fill="#f2ebe0"/>
  </g>
  <g>
    <path d="M167,129.7C235,172.8,323.2,68.4,272.9,0h-8c36.9,53.2-5.5,124.4-51.9,131.7-44.8,7.1-69.1-33.9-89.9-59.9C101.1,44.4,81.1,21.1,65.2,0h-10c35.7,34.6,67.6,101.7,111.8,129.7Z" fill="#f2ebe0"/>
    <path d="M163,107.8c58.6,52,144.1-42.7,93.9-107.8H75.1c27.8,30.3,55.7,79.2,87.9,107.8Z" fill="#f2ebe0"/>
    <path d="M284.8,191.6c-39.6,36.3-98.1,16.4-123.8-29.9,16.2,39.5,35.8,74,79.9,75.8,64.6,2.7,103.2-55.9,119.1-119.9V18.9c-.6-10.5-9.4-18.9-20-18.9h-51.2c25.9,50.4,42.2,149.2-4,191.6Z" fill="#f2ebe0"/>
    <path d="M179,247.5c0-56-38-98.6-73.9-137.7C69.5,71,32.1,44,0,16.4v114.5c18.8,14.6,37.6,31.8,55.2,48.8,18.5,17.8,45.8,38.9,40,73.8C81.6,200.4,38.2,177.2,0,148.8v25.1c15.5,9.9,29.2,20.4,47.2,33.7,14.5,10.8,48.9,30.9,42,51.9-8.7,26.2-68.1.9-89.1-8.8v86s0,3.5,0,3.5c.1,10.9,9.1,19.8,20,19.8h55.1c46-10.5,103.9-60.8,103.9-112.5Z" fill="#f2ebe0"/>
    <path d="M360,258v-99.4c-11.5,26.2-21.2,49.1-43.2,66.8-41.9,33.8-69.1,16.7-101.9,29.9-39.7,16-26.5,70.6-102.7,104.6h169.9c43.7-8.5,66.8-60.8,77.9-102Z" fill="#f2ebe0"/>
    <path d="M360,302.2c-8.6,21.6-25.2,51.3-48.9,57.8h29c11,0,19.9-9,19.9-20v-37.8Z" fill="#f2ebe0"/>
  </g>
</svg>