<?xml version="1.0" encoding="UTF-8"?>
<svg id="Layer_2" xmlns="http://www.w3.org/2000/svg" version="1.1" viewBox="0 0 842.3 156.4">
  <!-- Generator: Adobe Illustrator 29.3.1, SVG Export Plug-In . SVG Version: 2.1.0 Build 151)  -->
  <defs>
    <style>
      .st0 {
        fill: #19221c;
      }

      .st1 {
        fill: #fff;
      }

      .st2 {
        fill: #8c2f1d;
      }
    </style>
  </defs>
  <g id="Layer_1-2">
    <g>
      <rect class="st1" y="0" width="156.4" height="156.4" rx="8.8" ry="8.8"/>
      <g>
        <g>
          <path class="st1" d="M227.8,22.5c1.9,0,2.8.9,2.8,2.8v4.6c0,1.8-.9,2.8-2.8,2.8h-26.5v15.2h22.2c1.8,0,2.8,1,2.8,2.9v4.5c0,1.8-.9,2.8-2.8,2.8h-22.2v18.5c0,1.9-.9,2.8-2.8,2.8h-5.6c-1.9,0-2.8-.9-2.8-2.8V28c0-1.5.5-2.8,1.6-3.9,1.1-1.1,2.4-1.6,3.9-1.6h32.3Z"/>
          <path class="st1" d="M244.9,79.5c-1.9,0-2.8-.9-2.8-2.8V25.3c0-1.9.9-2.8,2.8-2.8h5.6c1.9,0,2.8.9,2.8,2.8v51.3c0,1.9-.9,2.8-2.8,2.8h-5.6Z"/>
          <path class="st1" d="M310.2,75.6c.4.7.5,1.3.5,1.8,0,1.4-.9,2.1-2.8,2.1h-5.4c-1.6,0-2.7-.7-3.4-2l-10-16.7h-11.6v15.8c0,1.9-.9,2.8-2.8,2.8h-5.6c-1.9,0-2.8-.9-2.8-2.8V28.1c0-1.6.5-2.9,1.6-4,1-1.1,2.4-1.6,4-1.6h17.2c6.4,0,11.6,1.8,15.5,5.5,4,3.7,6,8.3,6,14s-.9,7-2.8,9.9c-1.9,3-4.4,5.2-7.7,6.8l10.1,16.9h0ZM277.5,32.3v19.3h10.8c3.4,0,6-.9,7.9-2.7,1.9-1.8,2.9-4.1,2.9-7s-1-5.1-2.9-7-4.6-2.7-7.9-2.7h-10.8Z"/>
          <path class="st1" d="M342.4,80.1c-6.4,0-12.9-1.5-19.5-4.6-1.2-.5-1.8-1.3-1.8-2.4s.1-1.1.4-1.6l1.7-4c.5-1.2,1.3-1.7,2.3-1.7s1.1.2,1.8.5c5.8,2.4,10.9,3.5,15.4,3.5s5.5-.6,7.1-1.8c1.6-1.2,2.4-2.7,2.4-4.4s-.8-3.3-2.2-4.4-4.1-2.1-7.8-3.2l-3.1-.9c-2.1-.6-3.9-1.2-5.3-1.7-1.4-.5-3-1.3-4.7-2.2-1.7-.9-3.1-2-4.1-3.1-1-1.1-1.9-2.5-2.6-4.2s-1.1-3.6-1.1-5.7c0-4.7,1.9-8.6,5.7-11.8s8.9-4.7,15.3-4.7,12.1,1.4,18.5,4.2c1.3.6,1.9,1.5,1.9,2.5s-.1.9-.4,1.5l-1.7,3.9c-.6,1.2-1.3,1.8-2.3,1.8s-1,0-1.3-.2c-5.1-2.2-10-3.4-14.9-3.4s-5.4.6-7,1.7c-1.6,1.1-2.4,2.5-2.4,4.2s.8,3.2,2.2,4.2,4.1,2,7.8,3.1l3.3,1c2.6.8,4.8,1.5,6.4,2.3,1.7.7,3.5,1.7,5.4,3s3.4,2.9,4.3,4.9,1.5,4.2,1.5,6.9c0,4.9-2,8.9-5.9,12-3.9,3.1-9.1,4.7-15.4,4.7h0Z"/>
          <path class="st1" d="M415.8,22.5c1.9,0,2.8.9,2.8,2.8v4.6c0,1.9-.9,2.8-2.8,2.8h-15.1v43.9c0,1.9-.9,2.8-2.8,2.8h-5.6c-1.8,0-2.8-.9-2.8-2.8v-43.9h-15.2c-1.9,0-2.8-.9-2.8-2.8v-4.6c0-1.9.9-2.8,2.8-2.8h41.5Z"/>
          <path class="st1" d="M472.8,22.5c6.4,0,11.6,1.8,15.5,5.5,4,3.7,6,8.3,6,13.9s-2,10.3-6,13.9-9.2,5.5-15.5,5.5h-11.1v15.4c0,1.9-.9,2.8-2.8,2.8h-5.6c-1.9,0-2.8-.9-2.8-2.8V28.1c0-1.6.5-2.9,1.6-4,1-1.1,2.4-1.6,4-1.6h16.8ZM472,51.5c3.4,0,6-.9,8-2.7,2-1.8,2.9-4.1,2.9-6.9s-1-5.1-2.9-6.9c-2-1.8-4.6-2.7-8-2.7h-10.3v19.2s10.3,0,10.3,0Z"/>
          <path class="st1" d="M542.6,32.7h-26.5v13.2h22.2c1.8,0,2.8.9,2.8,2.8v4.5c0,1.9-.9,2.8-2.8,2.8h-22.2v13.2h26.5c1.9,0,2.8.9,2.8,2.8v4.6c0,1.9-.9,2.8-2.8,2.8h-32.3c-1.6,0-2.9-.5-3.9-1.6s-1.6-2.4-1.6-3.9V28c0-1.5.5-2.8,1.6-3.9,1-1.1,2.4-1.6,3.9-1.6h32.3c1.9,0,2.8.9,2.8,2.8v4.6c0,1.8-.9,2.8-2.8,2.8Z"/>
          <path class="st1" d="M599.9,71.9c-5.1,5.5-11.6,8.2-19.4,8.2s-14.2-2.7-19.3-8.2c-5.1-5.5-7.6-12.5-7.6-20.9s2.5-15.5,7.6-20.9c5.1-5.5,11.5-8.2,19.3-8.2s14.2,2.7,19.4,8.2c5.1,5.5,7.7,12.5,7.7,20.9s-2.5,15.5-7.7,20.9ZM569.4,64.2c2.9,3.4,6.6,5.1,11.2,5.1s8.3-1.7,11.2-5.1c2.9-3.4,4.3-7.8,4.3-13.2s-1.4-9.9-4.3-13.2c-2.9-3.4-6.6-5.1-11.2-5.1s-8.3,1.7-11.2,5.1-4.4,7.8-4.4,13.2,1.5,9.9,4.4,13.2Z"/>
          <path class="st1" d="M641,22.5c6.4,0,11.6,1.8,15.5,5.5s6,8.3,6,13.9-2,10.3-6,13.9-9.2,5.5-15.5,5.5h-11.2v15.4c0,1.9-.9,2.8-2.8,2.8h-5.6c-1.9,0-2.8-.9-2.8-2.8V28.1c0-1.6.5-2.9,1.6-4s2.4-1.6,4-1.6h16.8ZM640.2,51.5c3.3,0,6-.9,8-2.7,2-1.8,2.9-4.1,2.9-6.9s-1-5.1-2.9-6.9c-2-1.8-4.6-2.7-8-2.7h-10.3v19.2s10.3,0,10.3,0Z"/>
          <path class="st1" d="M710.8,69.2c1.9,0,2.8.9,2.8,2.8v4.6c0,1.9-.9,2.8-2.8,2.8h-32.3c-1.5,0-2.8-.5-3.9-1.6-1.1-1.1-1.6-2.4-1.6-3.9V25.3c0-1.9.9-2.8,2.8-2.8h5.6c1.9,0,2.8.9,2.8,2.8v43.9h26.5,0Z"/>
          <path class="st1" d="M762.7,32.7h-26.5v13.2h22.2c1.8,0,2.8.9,2.8,2.8v4.5c0,1.9-.9,2.8-2.8,2.8h-22.2v13.2h26.5c1.9,0,2.8.9,2.8,2.8v4.6c0,1.9-.9,2.8-2.8,2.8h-32.3c-1.6,0-2.9-.5-3.9-1.6s-1.6-2.4-1.6-3.9V28c0-1.5.5-2.8,1.6-3.9,1-1.1,2.4-1.6,3.9-1.6h32.3c1.9,0,2.8.9,2.8,2.8v4.6c0,1.8-.9,2.8-2.8,2.8Z"/>
          <path class="st1" d="M797.8,80.1c-6.4,0-12.9-1.5-19.5-4.6-1.2-.5-1.8-1.3-1.8-2.4s.1-1.1.4-1.6l1.7-4c.5-1.2,1.3-1.7,2.3-1.7s1.1.2,1.8.5c5.8,2.4,10.9,3.5,15.4,3.5s5.5-.6,7.1-1.8,2.4-2.7,2.4-4.4-.8-3.3-2.2-4.4-4.1-2.1-7.8-3.2l-3.1-.9c-2.1-.6-3.8-1.2-5.3-1.7-1.4-.5-3-1.3-4.7-2.2-1.7-.9-3.1-2-4.1-3.1-1-1.1-1.9-2.5-2.6-4.2s-1.1-3.6-1.1-5.7c0-4.7,1.9-8.6,5.7-11.8s8.9-4.7,15.3-4.7,12.1,1.4,18.5,4.2c1.3.6,1.9,1.5,1.9,2.5s-.1.9-.4,1.5l-1.7,3.9c-.6,1.2-1.3,1.8-2.3,1.8s-1,0-1.3-.2c-5.1-2.2-10-3.4-14.9-3.4s-5.3.6-7,1.7c-1.6,1.1-2.4,2.5-2.4,4.2s.8,3.2,2.2,4.2,4.1,2,7.8,3.1l3.3,1c2.6.8,4.8,1.5,6.4,2.3,1.7.7,3.5,1.7,5.4,3,1.9,1.3,3.3,2.9,4.3,4.9,1,2,1.5,4.2,1.5,6.9,0,4.9-2,8.9-5.9,12s-9.1,4.7-15.4,4.7h0Z"/>
        </g>
        <g>
          <path class="st1" d="M218.1,126.8c-.5-1-1.2-1.2-1.8-1.2s-.6,0-.9.1c-2.9,1.1-5.4,1.7-7.4,1.7-3.2,0-5.9-1.2-8-3.6-2.1-2.4-3.1-5.5-3.1-9.4s1.1-7.1,3.1-9.4c2.1-2.4,4.8-3.6,8-3.6s4.4.6,7.4,1.7c.3,0,.6.1.9.1.5,0,1.3-.2,1.8-1.2l1.1-2.4c.2-.3.3-.7.3-1.1,0-.6-.2-1.4-1.4-1.8-3.8-1.6-7.2-2.4-10.3-2.4-5.3,0-9.7,1.9-13.1,5.7-3.4,3.8-5.1,8.6-5.1,14.4s1.7,10.6,5.1,14.3c3.4,3.8,7.8,5.7,13.1,5.7s6.9-.8,10.4-2.4c1.1-.5,1.3-1.2,1.3-1.8s0-.4-.3-1.1l-1.1-2.4h0Z"/>
          <path class="st1" d="M259.4,94.8h-3c-1.3,0-2.1.8-2.1,2.1v20.9c0,2.9-.8,5.3-2.5,7.1-1.7,1.8-3.8,2.7-6.6,2.7s-4.8-.9-6.5-2.7c-1.6-1.8-2.5-4.2-2.5-7.1v-20.9c0-1.3-.8-2.1-2.1-2.1h-3c-1.3,0-2.1.8-2.1,2.1v20.9c0,4.9,1.5,9,4.6,12.1,3,3.1,6.9,4.7,11.6,4.7s8.7-1.6,11.7-4.7c3-3.1,4.6-7.2,4.6-12.1v-20.9c0-1.3-.8-2.1-2.1-2.1h0Z"/>
          <path class="st1" d="M297.1,127.4h-18v-30.5c0-1.3-.8-2.1-2.1-2.1h-3.1c-1.3,0-2.1.8-2.1,2.1v33.4c0,1.1.4,2.1,1.2,2.8.8.7,1.7,1.1,2.8,1.1h21.4c1.4,0,2.1-.8,2.1-2.1v-2.6c0-1.3-.8-2.1-2.1-2.1h0Z"/>
          <path class="st1" d="M328.4,94.8h-27.9c-1.3,0-2.1.8-2.1,2.1v2.6c0,1.3.8,2.1,2.1,2.1h10.3v30.5c0,1.3.8,2.1,2.1,2.1h3c1.4,0,2.1-.8,2.1-2.1v-30.5h10.3c1.3,0,2.1-.8,2.1-2.1v-2.6c0-1.3-.8-2.1-2.1-2.1h0Z"/>
          <path class="st1" d="M369.3,94.8h-3c-1.3,0-2.1.8-2.1,2.1v20.9c0,2.9-.8,5.3-2.5,7.1-1.7,1.8-3.8,2.7-6.6,2.7s-4.8-.9-6.5-2.7c-1.6-1.8-2.5-4.2-2.5-7.1v-20.9c0-1.3-.8-2.1-2.1-2.1h-3c-1.3,0-2.1.8-2.1,2.1v20.9c0,4.9,1.5,9,4.6,12.1,3,3.1,6.9,4.7,11.6,4.7s8.7-1.6,11.7-4.7c3-3.1,4.6-7.2,4.6-12.1v-20.9c0-1.3-.8-2.1-2.1-2.1h0Z"/>
          <path class="st1" d="M411.3,131.1l-7.1-11.6c2.2-1,3.9-2.5,5.2-4.4,1.4-2.1,2.1-4.4,2.1-7,0-3.9-1.4-7.1-4.1-9.6-2.7-2.5-6.3-3.8-10.6-3.8h-11c-1.1,0-2.1.4-2.8,1.2-.8.8-1.1,1.7-1.1,2.8v33.3c0,1.3.8,2.1,2.1,2.1h3.1c1.3,0,2.1-.8,2.1-2.1v-11h8.1l7.2,11.8c.5.9,1.3,1.4,2.4,1.4h3c1.9,0,2.1-1.2,2.1-1.7s-.1-.7-.4-1.2c0,0,0,0,0,0h0ZM404.1,108c0,2-.7,3.6-2.1,4.9-1.4,1.2-3.3,1.9-5.7,1.9h-7.3v-13.5h7.3c2.4,0,4.3.7,5.7,1.9,1.4,1.3,2.1,2.9,2.1,4.8h0Z"/>
          <path class="st1" d="M455,131.3l-12.7-33.6c-.9-2.2-2.5-3.3-5-3.3s-4.1,1.1-4.9,3.3l-12.7,33.6c-.2.4-.3.7-.3,1.1,0,.6.2,1.8,2.1,1.8h2.9c1.2,0,2-.6,2.3-1.6l2.2-6.2h16.5l2.2,6.2c.4,1.1,1.2,1.6,2.3,1.6h2.9c1.9,0,2.1-1.3,2.1-1.8s0-.6-.2-1h0s0,0,0,0ZM443.3,119.8h-11.8l5.9-16.4,5.9,16.4h0Z"/>
          <path class="st1" d="M488.9,127.4h-18v-30.5c0-1.3-.8-2.1-2.1-2.1h-3.1c-1.3,0-2.1.8-2.1,2.1v33.4c0,1.1.4,2.1,1.2,2.8.8.7,1.7,1.1,2.8,1.1h21.4c1.4,0,2.1-.8,2.1-2.1v-2.6c0-1.3-.8-2.1-2.1-2.1h0Z"/>
          <path class="st1" d="M544,126.8c-.5-1-1.2-1.2-1.8-1.2s-.6,0-.9.1c-2.9,1.1-5.4,1.7-7.4,1.7-3.2,0-6-1.2-8-3.6-2.1-2.4-3.2-5.5-3.2-9.4s1.1-7.1,3.2-9.4c2.1-2.4,4.8-3.6,8-3.6s4.5.6,7.4,1.7c.3,0,.6.1.9.1.5,0,1.3-.2,1.8-1.2l1.1-2.4c.2-.3.3-.7.3-1.1,0-.6-.2-1.4-1.4-1.8-3.8-1.6-7.2-2.4-10.3-2.4-5.3,0-9.7,1.9-13.1,5.7-3.4,3.8-5.2,8.6-5.2,14.4s1.7,10.6,5.2,14.3c3.4,3.8,7.8,5.7,13.1,5.7s6.9-.8,10.5-2.4c1.1-.5,1.3-1.2,1.3-1.8s0-.4-.3-1.1l-1.1-2.4h0Z"/>
          <path class="st1" d="M569.4,94.4c-5.3,0-9.7,1.9-13.1,5.7-3.4,3.8-5.2,8.6-5.2,14.4s1.7,10.6,5.2,14.3c3.4,3.8,7.8,5.7,13.1,5.7s9.7-1.9,13.1-5.7c3.4-3.8,5.2-8.6,5.2-14.3s-1.7-10.7-5.2-14.4c-3.5-3.8-7.9-5.7-13.1-5.7ZM577.2,123.9c-2,2.4-4.6,3.6-7.9,3.6s-5.8-1.2-7.8-3.6c-2-2.4-3.1-5.6-3.1-9.4s1-7.1,3-9.5c2-2.4,4.6-3.6,7.9-3.6s5.8,1.2,7.9,3.6c2,2.4,3,5.6,3,9.5s-1,7-3,9.4h0Z"/>
          <path class="st1" d="M627,94.8h-3c-1.3,0-2.1.8-2.1,2.1v20.9c0,2.9-.8,5.3-2.5,7.1-1.7,1.8-3.8,2.7-6.6,2.7s-4.8-.9-6.5-2.7c-1.7-1.8-2.5-4.2-2.5-7.1v-20.9c0-1.3-.8-2.1-2.1-2.1h-3c-1.3,0-2.1.8-2.1,2.1v20.9c0,4.9,1.5,9,4.6,12.1,3,3.1,6.9,4.7,11.6,4.7s8.7-1.6,11.7-4.7c3-3.1,4.6-7.2,4.6-12.1v-20.9c0-1.3-.8-2.1-2.1-2.1h0Z"/>
          <path class="st1" d="M668.7,94.8h-3.1c-1.3,0-2.1.8-2.1,2.1v25.2l-14.9-25.3c-.9-1.6-2.5-2.4-4.5-2.4s-2.4.4-3.3,1.2c-.9.8-1.4,2-1.4,3.5v32.9c0,1.3.8,2.1,2.1,2.1h3c1.3,0,2.1-.8,2.1-2.1v-25.1l14.9,25.2c.9,1.6,2.4,2.4,4.5,2.4s2.5-.4,3.4-1.2c.9-.8,1.4-2,1.4-3.5v-32.9c0-1.3-.8-2.1-2.1-2.1h0Z"/>
          <path class="st1" d="M708.6,126.8c-.5-1-1.2-1.2-1.8-1.2s-.6,0-.9.1c-2.9,1.1-5.4,1.7-7.4,1.7-3.2,0-6-1.2-8-3.6-2.1-2.4-3.2-5.5-3.2-9.4s1.1-7.1,3.2-9.4c2.1-2.4,4.8-3.6,8-3.6s4.5.6,7.4,1.7c.3,0,.6.1.9.1.5,0,1.3-.2,1.8-1.2l1.1-2.4c.2-.3.3-.7.3-1.1,0-.6-.2-1.4-1.4-1.8-3.8-1.6-7.2-2.4-10.3-2.4-5.3,0-9.7,1.9-13.1,5.7-3.4,3.8-5.2,8.6-5.2,14.4s1.7,10.6,5.2,14.3c3.4,3.8,7.8,5.7,13.1,5.7s6.9-.8,10.5-2.4c1.1-.5,1.3-1.2,1.3-1.8s0-.4-.3-1.1l-1.1-2.4h0Z"/>
          <rect class="st1" x="719.7" y="94.8" width="7.2" height="39.4" rx="2.1" ry="2.1"/>
          <path class="st1" d="M762.7,127.4h-18v-30.5c0-1.3-.8-2.1-2.1-2.1h-3.1c-1.3,0-2.1.8-2.1,2.1v33.4c0,1.1.4,2.1,1.2,2.8.8.7,1.7,1.1,2.8,1.1h21.4c1.4,0,2.1-.8,2.1-2.1v-2.6c0-1.3-.8-2.1-2.1-2.1h0Z"/>
        </g>
        <path class="st1" d="M842.3,28.7c0-3.6-3-6.6-6.6-6.6h0c-1.8,0-3.4.7-4.7,1.9s-1.9,2.9-1.9,4.7c0,2.7,1.7,5.1,4.1,6.1l-4.7,8.5h5.8v-.2c.2,0,4.6-5.6,7.4-11.7h0c.4-.8.6-1.8.5-2.7"/>
        <g>
          <path class="st0" d="M72.6,56.4C102.1,75.1,140.4,29.8,118.6,0h-3.5c16,23.1-2.4,54-22.6,57.2-19.5,3.1-30-14.7-39-26C43.9,19.3,35.2,9.2,28.3,0h-4.3c15.5,15,29.4,44.2,48.6,56.3h0Z"/>
          <path class="st0" d="M70.8,46.9C96.3,69.5,133.4,28.3,111.6,0H32.6c12.1,13.2,24.2,34.4,38.2,46.8h0Z"/>
          <path class="st0" d="M123.7,83.3c-17.2,15.8-42.6,7.1-53.8-13,7,17.2,15.6,32.2,34.7,32.9,28.1,1.2,44.8-24.3,51.7-52.1V8.3c-.3-4.6-4.1-8.2-8.7-8.2h-22.2c11.3,21.9,18.3,64.8-1.7,83.2Z"/>
          <path class="st2" d="M77.8,107.6c0-24.3-16.5-42.8-32.1-59.8C30.2,30.9,14,19.1,0,7.2v49.7c8.2,6.3,16.3,13.8,24,21.2,8,7.7,19.9,16.9,17.4,32.1C35.5,87.1,16.6,77,0,64.7v10.9c6.7,4.3,12.7,8.9,20.5,14.6,6.3,4.7,21.2,13.4,18.3,22.6-3.8,11.4-29.6.4-38.7-3.8v38.9c0,4.7,3.9,8.6,8.7,8.6h23.9c20-4.6,45.1-26.4,45.1-48.9h0Z"/>
          <path class="st2" d="M156.4,112.1v-43.2c-5,11.4-9.2,21.3-18.8,29-18.2,14.7-30,7.2-44.3,13-17.2,6.9-11.5,30.7-44.6,45.4h73.8c19-3.7,29-26.4,33.8-44.3h0s0,0,0,0Z"/>
          <path class="st2" d="M156.4,131.3c-3.7,9.4-10.9,22.3-21.2,25.1h12.6c4.8,0,8.6-3.9,8.6-8.7v-16.4Z"/>
        </g>
      </g>
    </g>
  </g>
  <g id="Layer_1-21" data-name="Layer_1-2">
    <g>
      <rect class="st1" x="-363.9" y="-560.1" width="291.4" height="291.4" rx="8.8" ry="8.8"/>
      <g>
        <g>
          <path class="st1" d="M60.3-518.1c3.5,0,5.3,1.8,5.3,5.3v8.6c0,3.4-1.8,5.1-5.3,5.1H10.9v28.4h41.4c3.4,0,5.1,1.8,5.1,5.4v8.5c0,3.4-1.7,5.1-5.1,5.1H10.9v34.5c0,3.5-1.8,5.3-5.3,5.3H-4.8c-3.5,0-5.3-1.8-5.3-5.3v-90.7c0-2.8,1-5.2,2.9-7.2,2-2,4.4-3,7.3-3h60.1Z"/>
          <path class="st1" d="M92.2-412c-3.5,0-5.3-1.8-5.3-5.3v-95.7c0-3.5,1.8-5.3,5.3-5.3h10.4c3.5,0,5.3,1.8,5.3,5.3v95.6c0,3.5-1.8,5.3-5.3,5.3h-10.4Z"/>
          <path class="st1" d="M213.9-419.3c.7,1.4,1,2.5,1,3.4,0,2.6-1.8,3.9-5.3,3.9h-10.1c-2.9,0-5-1.2-6.3-3.7l-18.6-31h-21.6v29.4c0,3.5-1.8,5.3-5.3,5.3h-10.4c-3.5,0-5.3-1.8-5.3-5.3v-90.5c0-2.9,1-5.4,2.9-7.4,2-2,4.4-3,7.5-3h32c11.9,0,21.5,3.4,29,10.2,7.4,6.8,11.1,15.5,11.1,26s-1.7,13-5.2,18.5c-3.5,5.5-8.3,9.7-14.4,12.6l18.9,31.4h0ZM153-499.9v36h20c6.2,0,11.2-1.7,14.8-5,3.6-3.4,5.4-7.7,5.4-12.9s-1.8-9.6-5.4-12.9-8.5-5-14.8-5h-20Z"/>
          <path class="st1" d="M273.8-410.8c-12,0-24.1-2.8-36.3-8.5-2.3-1-3.4-2.5-3.4-4.5s.2-2,.7-2.9l3.2-7.5c1-2.1,2.4-3.2,4.2-3.2s2,.3,3.4.9c10.7,4.4,20.3,6.6,28.7,6.6s10.3-1.1,13.2-3.3c3-2.2,4.5-5,4.5-8.3s-1.4-6.2-4.2-8.1-7.6-3.9-14.5-5.9l-5.8-1.8c-3.9-1.2-7.2-2.2-9.8-3.2-2.6-1-5.5-2.3-8.7-4.1-3.2-1.8-5.7-3.7-7.7-5.7-2-2-3.6-4.6-4.9-7.7s-2-6.6-2-10.5c0-8.8,3.6-16.1,10.7-21.9,7.1-5.8,16.6-8.8,28.5-8.8s22.5,2.6,34.5,7.9c2.3,1.2,3.5,2.7,3.5,4.7s-.2,1.6-.7,2.8l-3.2,7.2c-1.1,2.3-2.5,3.4-4.2,3.4s-1.8-.1-2.5-.4c-9.5-4.2-18.7-6.3-27.8-6.3s-10,1-12.9,3.1c-3,2.1-4.5,4.7-4.5,7.8s1.4,6,4.2,7.8,7.6,3.7,14.5,5.8l6.1,1.9c4.9,1.5,8.9,2.9,12,4.2,3.1,1.4,6.5,3.2,10,5.6s6.2,5.4,8,9.1,2.7,7.9,2.7,12.8c0,9.1-3.7,16.5-11,22.4-7.3,5.8-16.9,8.8-28.7,8.8h0Z"/>
          <path class="st1" d="M410.4-518.1c3.5,0,5.3,1.8,5.3,5.3v8.6c0,3.5-1.8,5.3-5.3,5.3h-28.1v81.7c0,3.5-1.8,5.3-5.3,5.3h-10.5c-3.4,0-5.1-1.8-5.1-5.3v-81.7h-28.2c-3.5,0-5.3-1.8-5.3-5.3v-8.6c0-3.5,1.8-5.3,5.3-5.3h77.2Z"/>
          <path class="st1" d="M516.8-518.1c11.9,0,21.5,3.4,29,10.2,7.4,6.8,11.1,15.5,11.1,25.9s-3.7,19.2-11.1,26c-7.4,6.8-17.1,10.2-29,10.2h-20.8v28.7c0,3.5-1.8,5.3-5.3,5.3h-10.4c-3.5,0-5.3-1.8-5.3-5.3v-90.6c0-2.9,1-5.4,2.9-7.4,2-2,4.4-3,7.5-3h31.3ZM515.2-464.2c6.2,0,11.2-1.7,14.8-5,3.7-3.4,5.5-7.6,5.5-12.8s-1.8-9.4-5.5-12.8c-3.7-3.4-8.6-5-14.8-5h-19.2v35.7s19.2,0,19.2,0Z"/>
          <path class="st1" d="M646.6-499.1h-49.4v24.6h41.4c3.4,0,5.1,1.8,5.1,5.3v8.5c0,3.5-1.7,5.3-5.1,5.3h-41.4v24.6h49.4c3.5,0,5.3,1.7,5.3,5.1v8.6c0,3.5-1.8,5.3-5.3,5.3h-60.1c-2.9,0-5.4-1-7.3-3s-2.9-4.4-2.9-7.2v-85.7c0-2.8,1-5.2,2.9-7.2,2-2,4.4-3,7.3-3h60.1c3.5,0,5.3,1.8,5.3,5.3v8.6c0,3.4-1.8,5.1-5.3,5.1Z"/>
          <path class="st1" d="M753.5-426.1c-9.5,10.2-21.5,15.3-36.1,15.3s-26.5-5.1-36-15.3c-9.5-10.2-14.2-23.2-14.2-39s4.7-28.8,14.2-39c9.5-10.2,21.5-15.3,36-15.3s26.5,5.1,36.1,15.3c9.5,10.2,14.3,23.2,14.3,39s-4.7,28.8-14.3,39ZM696.6-440.4c5.4,6.3,12.4,9.4,20.8,9.4s15.4-3.1,20.8-9.4c5.4-6.3,8-14.5,8-24.6s-2.7-18.4-8-24.6c-5.4-6.3-12.3-9.4-20.8-9.4s-15.4,3.1-20.8,9.4-8.1,14.5-8.1,24.6,2.7,18.3,8.1,24.6Z"/>
          <path class="st1" d="M830-518.1c11.9,0,21.5,3.4,29,10.2,7.4,6.8,11.1,15.5,11.1,25.9s-3.7,19.2-11.1,26c-7.4,6.8-17.1,10.2-29,10.2h-20.8v28.7c0,3.5-1.8,5.3-5.3,5.3h-10.4c-3.5,0-5.3-1.8-5.3-5.3v-90.6c0-2.9,1-5.4,2.9-7.4s4.4-3,7.5-3h31.3ZM828.4-464.2c6.2,0,11.2-1.7,14.8-5,3.7-3.4,5.5-7.6,5.5-12.8s-1.8-9.4-5.5-12.8c-3.7-3.4-8.6-5-14.8-5h-19.2v35.7s19.2,0,19.2,0Z"/>
          <path class="st1" d="M959.9-431.1c3.5,0,5.3,1.8,5.3,5.3v8.6c0,3.5-1.8,5.3-5.3,5.3h-60.1c-2.8,0-5.2-1-7.2-3-2-2-3-4.4-3-7.2v-90.7c0-3.5,1.8-5.3,5.3-5.3h10.4c3.5,0,5.3,1.8,5.3,5.3v81.7h49.4,0Z"/>
          <path class="st1" d="M1056.6-499.1h-49.4v24.6h41.4c3.4,0,5.1,1.8,5.1,5.3v8.5c0,3.5-1.7,5.3-5.1,5.3h-41.4v24.6h49.4c3.5,0,5.3,1.7,5.3,5.1v8.6c0,3.5-1.8,5.3-5.3,5.3h-60.1c-2.9,0-5.4-1-7.3-3s-2.9-4.4-2.9-7.2v-85.7c0-2.8,1-5.2,2.9-7.2,2-2,4.4-3,7.3-3h60.1c3.5,0,5.3,1.8,5.3,5.3v8.6c0,3.4-1.8,5.1-5.3,5.1Z"/>
          <path class="st1" d="M1122-410.8c-12,0-24.1-2.8-36.3-8.5-2.3-1-3.4-2.5-3.4-4.5s.2-2,.7-2.9l3.2-7.5c1-2.1,2.4-3.2,4.2-3.2s2,.3,3.4.9c10.7,4.4,20.3,6.6,28.7,6.6s10.3-1.1,13.2-3.3,4.5-5,4.5-8.3-1.4-6.2-4.2-8.1-7.6-3.9-14.5-5.9l-5.8-1.8c-3.9-1.2-7.2-2.2-9.8-3.2-2.6-1-5.5-2.3-8.7-4.1-3.2-1.8-5.7-3.7-7.7-5.7-2-2-3.6-4.6-4.9-7.7-1.3-3.1-2-6.6-2-10.5,0-8.8,3.6-16.1,10.7-21.9s16.6-8.8,28.5-8.8,22.5,2.6,34.5,7.9c2.3,1.2,3.5,2.7,3.5,4.7s-.2,1.6-.7,2.8l-3.2,7.2c-1.1,2.3-2.5,3.4-4.2,3.4s-1.8-.1-2.5-.4c-9.5-4.2-18.7-6.3-27.8-6.3s-10,1-12.9,3.1c-3,2.1-4.5,4.7-4.5,7.8s1.4,6,4.2,7.8,7.6,3.7,14.5,5.8l6.1,1.9c4.9,1.5,8.9,2.9,12,4.2,3.1,1.4,6.5,3.2,10,5.6,3.6,2.4,6.2,5.4,8,9.1,1.8,3.7,2.7,7.9,2.7,12.8,0,9.1-3.7,16.5-11,22.4-7.3,5.8-16.9,8.8-28.7,8.8h0Z"/>
        </g>
        <g>
          <path class="st1" d="M42.4-323.9c-.9-1.9-2.3-2.3-3.3-2.3s-1.1,0-1.7.3c-5.5,2.1-10.1,3.2-13.7,3.2-6.1,0-11.1-2.2-15-6.6-3.9-4.4-5.9-10.3-5.9-17.5s2-13.1,5.9-17.6c3.9-4.4,8.9-6.7,15-6.7s8.3,1.1,13.8,3.2c.5.1,1.1.2,1.6.2,1,0,2.3-.4,3.3-2.3l2-4.5c.3-.7.5-1.3.5-2,0-1.2-.4-2.7-2.5-3.4-7-2.9-13.5-4.4-19.3-4.4-9.8,0-18,3.6-24.4,10.6-6.4,7-9.6,16-9.6,26.9s3.2,19.7,9.6,26.7c6.4,7,14.6,10.6,24.4,10.6s12.8-1.5,19.5-4.4c2-.9,2.4-2.3,2.4-3.4s0-.7-.6-2l-2.1-4.6h0Z"/>
          <path class="st1" d="M119.2-383.6h-5.6c-2.5,0-3.9,1.4-3.9,3.9v39c0,5.4-1.6,9.9-4.7,13.2-3.1,3.4-7.1,5-12.2,5s-9-1.6-12.1-5c-3.1-3.3-4.6-7.8-4.6-13.2v-39c0-2.5-1.5-3.9-4-3.9h-5.6c-2.5,0-3.9,1.4-3.9,3.9v38.9c0,9.2,2.8,16.8,8.5,22.6,5.6,5.8,12.9,8.7,21.7,8.7s16.1-2.9,21.8-8.7c5.6-5.8,8.5-13.4,8.5-22.6v-38.9c0-2.5-1.4-3.9-3.9-3.9h0Z"/>
          <path class="st1" d="M189.4-322.8h-33.6v-56.9c0-2.5-1.4-3.9-3.9-3.9h-5.7c-2.5,0-3.9,1.4-3.9,3.9v62.1c0,2.1.7,3.9,2.2,5.3,1.4,1.4,3.2,2.1,5.2,2.1h39.8c2.5,0,4-1.4,4-3.9v-4.8c0-2.5-1.5-3.9-4-3.9h0Z"/>
          <path class="st1" d="M247.7-383.6h-52c-2.5,0-3.9,1.4-3.9,3.9v4.8c0,2.5,1.4,3.9,3.9,3.9h19.3v56.9c0,2.5,1.4,3.9,3.9,3.9h5.6c2.5,0,4-1.4,4-3.9v-56.9h19.3c2.5,0,3.9-1.4,3.9-3.9v-4.8c0-2.5-1.4-3.9-3.9-3.9h0Z"/>
          <path class="st1" d="M324-383.6h-5.6c-2.5,0-3.9,1.4-3.9,3.9v39c0,5.4-1.6,9.9-4.7,13.2-3.1,3.4-7.1,5-12.2,5s-9-1.6-12.1-5c-3.1-3.3-4.6-7.8-4.6-13.2v-39c0-2.5-1.5-3.9-4-3.9h-5.6c-2.5,0-3.9,1.4-3.9,3.9v38.9c0,9.2,2.8,16.8,8.5,22.6,5.6,5.8,12.9,8.7,21.7,8.7s16.1-2.9,21.8-8.7c5.6-5.8,8.5-13.4,8.5-22.6v-38.9c0-2.5-1.4-3.9-3.9-3.9h0Z"/>
          <path class="st1" d="M402.2-315.8l-13.2-21.6c4-1.9,7.3-4.7,9.6-8.2,2.6-3.9,3.9-8.3,3.9-13.1,0-7.2-2.6-13.2-7.6-17.9-5-4.6-11.7-7-19.8-7h-20.5c-2.1,0-3.9.7-5.3,2.1-1.4,1.4-2.1,3.2-2.1,5.3v62c0,2.5,1.4,3.9,3.9,3.9h5.7c2.5,0,3.9-1.4,3.9-3.9v-20.5h15.1l13.4,21.9c.9,1.7,2.5,2.5,4.5,2.5h5.5c3.5,0,3.9-2.2,3.9-3.1s-.2-1.3-.7-2.3c0,0,0,0,0-.1h0ZM388.7-358.8c0,3.8-1.2,6.7-3.8,9.1-2.6,2.3-6.2,3.5-10.7,3.5h-13.6v-25.1h13.6c4.5,0,8,1.2,10.6,3.6,2.6,2.4,3.9,5.3,3.9,9h0Z"/>
          <path class="st1" d="M483.6-315.5l-23.6-62.6c-1.6-4.1-4.7-6.2-9.2-6.2s-7.6,2.1-9,6.2l-23.6,62.5c-.3.7-.5,1.3-.5,2,0,1,.4,3.4,4,3.4h5.4c2.2,0,3.7-1,4.3-3l4.1-11.5h30.8l4.1,11.5c.7,2,2.2,3,4.3,3h5.3c3.6,0,4-2.4,4-3.4s-.1-1.2-.3-1.9h0s0,0,0,0ZM461.8-337h-22l11-30.5,11,30.5h0Z"/>
          <path class="st1" d="M546.6-322.8h-33.6v-56.9c0-2.5-1.4-3.9-3.9-3.9h-5.7c-2.5,0-3.9,1.4-3.9,3.9v62.1c0,2.1.7,3.9,2.2,5.3,1.4,1.4,3.2,2.1,5.2,2.1h39.8c2.5,0,4-1.4,4-3.9v-4.8c0-2.5-1.5-3.9-4-3.9h0Z"/>
          <path class="st1" d="M649.3-323.9c-.9-1.9-2.3-2.3-3.3-2.3s-1.1,0-1.7.3c-5.5,2.1-10.1,3.2-13.7,3.2-6.1,0-11.1-2.2-15-6.6-3.9-4.4-5.9-10.3-5.9-17.5s2-13.1,5.9-17.6c3.9-4.4,8.9-6.7,15-6.7s8.3,1.1,13.8,3.2c.5.1,1.1.2,1.6.2,1,0,2.3-.4,3.3-2.3l2-4.5c.3-.7.5-1.3.5-2,0-1.2-.4-2.7-2.5-3.4-7-2.9-13.5-4.4-19.3-4.4-9.8,0-18,3.6-24.4,10.6-6.4,7-9.6,16-9.6,26.9s3.2,19.7,9.6,26.7c6.4,7,14.6,10.6,24.4,10.6s12.8-1.5,19.5-4.4c2-.9,2.4-2.3,2.4-3.4s0-.7-.6-2l-2.1-4.6h0Z"/>
          <path class="st1" d="M696.5-384.3c-9.8,0-18,3.6-24.4,10.6-6.4,7-9.6,16-9.6,26.9s3.2,19.7,9.6,26.7c6.4,7,14.6,10.6,24.4,10.6s18-3.6,24.5-10.6c6.4-7,9.6-16,9.6-26.7s-3.2-19.9-9.6-26.9c-6.4-7-14.7-10.6-24.5-10.6ZM711.2-329.3c-3.8,4.5-8.6,6.7-14.6,6.7s-10.8-2.2-14.6-6.7c-3.8-4.5-5.7-10.4-5.7-17.5s1.9-13.2,5.7-17.7c3.8-4.5,8.6-6.7,14.6-6.7s10.9,2.2,14.6,6.7c3.8,4.5,5.7,10.4,5.7,17.7s-1.9,13.1-5.7,17.5h0Z"/>
          <path class="st1" d="M804-383.6h-5.6c-2.5,0-3.9,1.4-3.9,3.9v39c0,5.4-1.6,9.9-4.7,13.2-3.1,3.4-7.1,5-12.2,5s-9-1.6-12.1-5c-3.1-3.3-4.6-7.8-4.6-13.2v-39c0-2.5-1.5-3.9-4-3.9h-5.6c-2.5,0-3.9,1.4-3.9,3.9v38.9c0,9.2,2.8,16.8,8.5,22.6,5.6,5.8,12.9,8.7,21.7,8.7s16.1-2.9,21.8-8.7c5.6-5.8,8.5-13.4,8.5-22.6v-38.9c0-2.5-1.4-3.9-3.9-3.9h0Z"/>
          <path class="st1" d="M881.5-383.6h-5.7c-2.5,0-3.9,1.4-3.9,3.9v47l-27.7-47.2c-1.8-2.9-4.6-4.4-8.4-4.4s-4.5.8-6.2,2.3c-1.7,1.5-2.6,3.7-2.6,6.6v61.3c0,2.5,1.5,3.9,4,3.9h5.6c2.5,0,3.9-1.4,3.9-3.9v-46.7l27.7,46.9c1.8,2.9,4.5,4.4,8.3,4.4s4.7-.8,6.3-2.3c1.7-1.5,2.6-3.7,2.6-6.6v-61.3c0-2.5-1.4-3.9-3.9-3.9h0Z"/>
          <path class="st1" d="M955.8-323.9c-.9-1.9-2.3-2.3-3.3-2.3s-1.1,0-1.7.3c-5.5,2.1-10.1,3.2-13.7,3.2-6.1,0-11.1-2.2-15-6.6-3.9-4.4-5.9-10.3-5.9-17.5s2-13.1,5.9-17.6c3.9-4.4,8.9-6.7,15-6.7s8.3,1.1,13.8,3.2c.5.1,1.1.2,1.6.2,1,0,2.3-.4,3.3-2.3l2-4.5c.3-.7.5-1.3.5-2,0-1.2-.4-2.7-2.5-3.4-7-2.9-13.5-4.4-19.3-4.4-9.8,0-18,3.6-24.4,10.6-6.4,7-9.6,16-9.6,26.9s3.2,19.7,9.6,26.7c6.4,7,14.6,10.6,24.4,10.6s12.8-1.5,19.5-4.4c2-.9,2.4-2.3,2.4-3.4s0-.7-.6-2l-2.1-4.6h0Z"/>
          <rect class="st1" x="976.5" y="-383.6" width="13.5" height="73.3" rx="-118.4" ry="-118.4"/>
          <path class="st1" d="M1056.7-322.8h-33.6v-56.9c0-2.5-1.4-3.9-3.9-3.9h-5.7c-2.5,0-3.9,1.4-3.9,3.9v62.1c0,2.1.7,3.9,2.2,5.3,1.4,1.4,3.2,2.1,5.2,2.1h39.8c2.5,0,4-1.4,4-3.9v-4.8c0-2.5-1.5-3.9-4-3.9h0Z"/>
        </g>
        <path class="st1" d="M1204.8-506.6c0-6.7-5.5-12.2-12.3-12.3h0c-3.3,0-6.3,1.3-8.7,3.6s-3.6,5.4-3.6,8.7c0,5,3.1,9.6,7.7,11.3l-8.7,15.8h10.7l.2-.3c0,0,8.3-10.4,13.6-21.8h0c.7-1.6,1-3.3,1-5"/>
        <g>
          <path class="st0" d="M-228.8-455c55,34.9,126.4-49.6,85.7-104.9h-6.5c29.9,43-4.5,100.7-42,106.6-36.2,5.7-55.9-27.4-72.7-48.5-17.8-22.2-34-41-46.8-58.1h-8.1c28.9,28,54.7,82.3,90.5,104.9h0Z"/>
          <path class="st0" d="M-232-472.8c47.4,42.1,116.6-34.5,76-87.2h-147.1c22.5,24.5,45.1,64.1,71.1,87.2h0Z"/>
          <path class="st0" d="M-133.4-405c-32,29.4-79.4,13.3-100.2-24.2,13.1,32,29,59.9,64.6,61.3,52.3,2.2,83.5-45.2,96.4-97v-79.8c-.5-8.5-7.6-15.3-16.2-15.3h-41.4c21,40.8,34.1,120.7-3.2,155Z"/>
          <path class="st2" d="M-219.1-359.7c0-45.3-30.8-79.8-59.8-111.4-28.8-31.4-59.1-53.2-85-75.6v92.6c15.2,11.8,30.4,25.7,44.7,39.5,15,14.4,37.1,31.5,32.4,59.7-11-42.9-46.1-61.7-77-84.7v20.3c12.5,8,23.6,16.5,38.2,27.3,11.7,8.7,39.6,25,34,42-7,21.2-55.1.7-72.1-7.1v72.4c0,8.8,7.4,16,16.2,16h44.6c37.2-8.5,84.1-49.2,84.1-91h0Z"/>
          <path class="st2" d="M-72.6-351.2v-80.4c-9.3,21.2-17.2,39.7-35,54.1-33.9,27.3-55.9,13.5-82.5,24.2-32.1,12.9-21.4,57.1-83.1,84.6h137.5c35.4-6.9,54.1-49.2,63-82.5h0q0,0,0,0Z"/>
          <path class="st2" d="M-72.6-315.5c-7,17.5-20.4,41.5-39.6,46.8h23.5c8.9,0,16.1-7.3,16.1-16.2v-30.6Z"/>
        </g>
      </g>
    </g>
  </g>
</svg>