<svg width="32" height="22" viewBox="0 0 32 22" fill="none" xmlns="http://www.w3.org/2000/svg">
    <mask id="vqzoqyj9ta" style="mask-type:luminance" maskUnits="userSpaceOnUse" x="0" y="0" width="32" height="22">
        <path d="M32 0H0v21.583h32V0z" fill="#fff"/>
    </mask>
    <g mask="url(#vqzoqyj9ta)" fill-rule="evenodd" clip-rule="evenodd" fill="#fff">
        <path d="M3.429 6.628c-.02.02-.05.031-.067.05.066.07.149.29.198.3.054-.03.05-.094.05-.148a1.953 1.953 0 0 0-.184-.198m9.034-5.406c-.017.047-.05.128-.05.134.024.03.057.04.084.067.087-.02.17-.047.251-.084a.146.146 0 0 0 .017-.084.748.748 0 0 0-.3-.033M5.802 0 5.72.518c-.015.08.034.184.033.301a2.36 2.36 0 0 0 .519-.05c.243-.052.591.014.886-.033.157-.025.456-.042.635-.067.117-.017.276.031.402.017.253-.03.602-.085.87-.134l.067.017c.2-.03.468-.01.669-.05.103-.02.2.029.334 0 .261-.031.524-.048.786-.05a5.126 5.126 0 0 1 2.643.435c.06.056.082.114.134.15.033.022.092.02.117.049.024.028.02.085.05.117.28.302.543.62.786.954.078.106.282.298.217.435-.024.042.004.019-.05.034-.222-.066-.332-.292-.534-.368a2.938 2.938 0 0 0-.335-.084h-.234a3.625 3.625 0 0 0-.954-.1.369.369 0 0 0-.049-.183c-.11.027-.209.003-.198.198a2.969 2.969 0 0 0-.602.034l-.285-.017a.866.866 0 0 1-.335.05c-.093-.043-.17-.147-.284-.184a.377.377 0 0 1-.3.217c-.117-.077-.415.039-.57.034a3.398 3.398 0 0 0-.719.05c-.16.035-.35-.022-.468 0a2.87 2.87 0 0 1-.652.033c-.09-.022-.108-.099-.218-.117a.111.111 0 0 1-.099.067c-.02-.062-.008-.084-.084-.099.005.061.025.044-.016.084-.3.109-.62.154-.937.134-.045-.079-.11-.187-.217-.201v.05c-.112.033-.154.155-.251.198-.109.05-.245-.034-.351 0a1.36 1.36 0 0 1-.385.05v.049a.43.43 0 0 0-.268.335c.116.105.073.23.117.418a1.05 1.05 0 0 1-.05.334c-.006.1-.006.201 0 .301-.02.148-.049.295-.088.44-.018.057-.063.092-.084.148.063.02.075.044.084.117-.05.009-.078.011-.1.05a.644.644 0 0 1-.016.618c-.086 0-.1-.013-.149 0 .018.025.03.054.033.084h.067c.024.07.035.143.034.217a.763.763 0 0 1-.034.502l-.05.034c-.01.024.05.062.035.117-.016.055-.034.144-.05.198-.028.096.013.198-.033.268a.47.47 0 0 1-.084.033c.008.03.03.038.034.05l-.017.099c.03.043.058.088.084.134-.01.113-.032.225-.067.334a.866.866 0 0 0 .017.218.842.842 0 0 1-.034.099c-.021.099.012.265 0 .367a10.57 10.57 0 0 0 1.689-.099c.203.004.405-.018.602-.067.094-.028.215-.004.301-.033l.218.016c.2 0 .401-.011.601-.033a7.42 7.42 0 0 1 1.522-.167c.14.004.389-.05.486-.034l.167-.017c.162-.01.325.002.485.034.058.013.095-.021.134-.017.167.019.389.085.535.117.017.003.045-.029.084-.017.038.012.109.068.148.084.328.104.646.233.954.385.018.01.019.056.034.067.004.003.054-.03.083-.017l.134.134c.108.076.185.175.285.25l.099.034c.06.045.094.136.149.184.093.08.215.038.267.184-.035.063-.066.068-.148.067-.058-.044-.1-.02-.184-.05-.04-.013-.094-.068-.134-.083-.139-.053-.274-.031-.418-.084a2.063 2.063 0 0 0-.217-.084l-.1.017a3.24 3.24 0 0 0-.317-.084c-.06-.01-.055.05-.1.034a.41.41 0 0 0-.033-.05c-.272-.093-.838.027-.937-.066-.036.01-.078.056-.117.066l-.149-.016c-.03.005-.137.012-.148.016l-.05.05c-.066.023-.111-.042-.149-.034-.092.02-.126.096-.25.034-.083-.055-.127-.133-.234-.167.004.105-.01.157-.084.184-.004.003-.268.084-.268.084-.016 0-.069-.053-.083-.05-.015.004-.057.054-.084.05-.006 0-.055-.036-.067-.034-.094.017-.277.082-.368.1-.054.011-.149-.031-.234 0-.021.007-.112.059-.134.066-.057.02-.115-.026-.148-.016l-.05.05c-.178.063-.373-.006-.518.083-.103-.011-.066-.068-.234-.05a.203.203 0 0 1 .017-.067h-.05c-.017.012-.067.022-.084.034-.04.044-.043.105-.099.134a1.119 1.119 0 0 1-.552.067l-.05-.084c-.03-.017-.07.01-.083.017-.04-.022-.017-.057-.067-.034-.043.08-.027.207-.168.234-.095-.044-.33.079-.451.1a1.863 1.863 0 0 0-.335.016c-.035.014-.087.073-.117.084l-.184-.017c-.05.02-.1.042-.148.067l-.318.017c-.043.019-.092.084-.149.099-.151.043-.307-.01-.418.067a.991.991 0 0 0-.034.234h-.086c0 .115-.053.215-.016.3.023.056.124.1.099.199-.011.047-.068.068-.084.1-.023.064-.04.132-.05.2-.034.135.06.248.05.318 0 .011-.045.094-.05.116l.017.117c-.003.02-.044.08-.05.1-.025.086.02.107 0 .183-.013.057-.049.13-.066.201.06.007.042-.008.067.034.077.088.02.328.017.451l-.017.284c-.013.036-.075.065-.084.1-.021.08.043.214.017.3-.04.133-.113.033-.117.285.095.022.12.06.117.184-.04.22-.056.445-.05.669-.024.195-.03.42-.067.602-.023.12.038.202.017.3-.017.079-.12.166-.148.235a.927.927 0 0 0-.017.117.198.198 0 0 1 .117-.033c.013.134.007.269-.017.401-.01.094.013.422-.017.585-.02.113.044.268.017.352-.017.053-.094.059-.117.099l-.05.3h.084c.014.021.026.044.033.068.062.11-.05.364-.017.535.029.33.006.663-.067.987-.031.335-.015.673.05 1.003-.067.022-.068.044-.067.134.04.046.023.056.017.134a.762.762 0 0 0-.167.083c.088.068.198.08.25.149.068.09.01.198.034.318.033.204.044.412.034.618a.253.253 0 0 1-.084.017 2.796 2.796 0 0 0-.552-.184h-.086l-.117-.117c-.167-.085-.38-.088-.552-.167-.347-.16-.594-.342-.97-.502a6.41 6.41 0 0 1 .034-1.371l-.017-.168c.082-.38-.008-.697.067-1.037v-.615c.036-.235.007-.559.05-.82 0-.01-.018-.065-.018-.099.01-.128.01-.256 0-.384.009-.157.025-.313.05-.469a4.28 4.28 0 0 1 .034-.635v-.37c.04-.293.05-.59.033-.886.023-.121.04-.244.05-.368a3.54 3.54 0 0 1 .05-.886c.01-.063-.036-.149-.017-.234.04-.178.036-.357.067-.519.01-.057-.024-.128-.017-.184.05-.404.029-.913.083-1.288h-.181c-.028-.015-.171.014-.251 0a1.982 1.982 0 0 1-.301-.05c-.04-.011-.083.022-.149 0-.095-.031-.211-.099-.3-.134h-.085c-.052-.03-.133-.181-.184-.217l-.1-.017.018-.05C.973 9.34.886 9.271.839 9.2l-.017-.1C.799 9.07.73 9.048.705 9.017c-.032-.04-.073-.125-.1-.167a.382.382 0 0 1-.098 0C.51 8.65.433 8.669.34 8.548a1.231 1.231 0 0 1-.1-.218H.3c.12.082.315.05.452.067.293.055.591.066.887.034l.351.016c.243-.048.49-.07.736-.068-.112-.103-.042-.209-.034-.334-.038-.063.01-.173.017-.268a3.848 3.848 0 0 1 .067-.786c.016-.104-.054-.269-.034-.385.072-.413.017-.866.117-1.321v-.351c.05-.217.02-.563.084-.853v-.268c.068-.38.101-.767.099-1.154l-.82.034c-.133-.023-.282-.07-.402-.099-.12-.03-.198 0-.317-.034a1.433 1.433 0 0 0-.385-.099.207.207 0 0 1 .016-.067c-.18-.03-.204-.201-.418-.217V2.09a1.852 1.852 0 0 1-.498-.585C.138 1.393.003 1.3 0 1.155c.414.009.973.079 1.405.066.232.036.467.048.702.034.375-.071.756-.11 1.137-.117-.09-.114-.007-.68.017-.87a5.75 5.75 0 0 0 .754-.101c.136-.036.387-.01.551-.05.149-.037.518-.013.602-.05.208-.052.422-.075.635-.067z"/>
        <path d="M22.316 17.891h-.067a1.2 1.2 0 0 0-.133.168v.084l-.05.017c-.018.045.042.034.034.083l-.05.05v.149c-.038.137-.078.099-.017.267a.691.691 0 0 0 .1-.117l-.02-.115c.013-.035.087-.088.1-.134l-.018-.117c.021-.075.135-.13.15-.198.012-.053-.029-.071-.035-.134m-.261-1.573c-.017.075-.064.138.017.184.038-.046.069-.06.083-.134l-.05-.05h-.05zm6.957-13.448a.558.558 0 0 1 .134-.351c.04.01.05.039.067.017a.677.677 0 0 0 .198-.251c-.056.052-.062.019-.1.05-.098.08-.058.148-.217.049a.37.37 0 0 1-.099.184.241.241 0 0 1-.067-.067c-.03.054-.011.104-.05.134-.046.035-.052-.007-.083.05a.113.113 0 0 0 .017.116.207.207 0 0 0 .198.067m.686-2.18c0 .099.025.074.05.166.064.003.108.042.148.034a.442.442 0 0 1 .168-.034c.082.087.178.16.284.218l.117.149c.158.062.265.264.351.3l.217.15c.043.11.137.143.184.198.033.04.034.093.067.133.034.041.119.05.168.084.195.134.32.39.535.502l.017.148c-.437-.215-.872.164-1.087.368-.09.086-.113.228-.284.234a.648.648 0 0 0-.167-.034.382.382 0 0 0 0 .117 1.013 1.013 0 0 0-.067.268c-.105.07-.144.19-.234.268-.119.08-.226.175-.318.284v.149l-.149.167c-.058.038-.236.084-.267.134a.908.908 0 0 1-.218.352c-.062.06-.116.035-.134.148.033.032-.003.172-.033.251-.05.024-.064.058-.1.084-.105.013-.12.105-.183.134-.064.028-.142-.01-.168 0 .013.08.014.063 0 .099-.026.107-.07.087-.099.134-.019.03-.016.144-.033.183-.05.119-.146.274-.198.385-.08.163-.03.373-.268.385-.039-.05-.041-.04-.1-.034-.011.047-.046.072-.033.134.024.065-.117.201-.117.201-.011.033.042.07.05.117-.156.173-.29.364-.402.568-.04.067-.038.154-.084.218-.03.04-.104.059-.134.099-.022.03-.007.086-.033.117-.11.053-.126.128-.167.167-.095.09-.28.182-.335.301.04.083.057.176.05.268-.041.072-.054.19-.1.267-.044.078-.167.142-.217.234-.06.113-.043.16-.117.268-.06.087-.21.115-.267.198-.058.083-.037.189-.084.284-.113.227-.251.505-.385.72-.045.072-.018.151-.05.2a.538.538 0 0 0-.133.184l-.034.134c-.029.098-.068.194-.116.284-.075.124-.184.258-.251.385a1.947 1.947 0 0 0-.1.234l-.066.099a.452.452 0 0 0-.134.184c-.13.07-.162.156-.218.198.1.22-.035.48-.133.686-.074.155-.086.317-.168.468a.962.962 0 0 0-.133.234l.033.1c-.012.07-.099.146-.133.198a3.118 3.118 0 0 0-.117.3c-.04.1-.128.284-.184.452l-.034.2a4.835 4.835 0 0 1-.218.486l-.033.234c-.026.087-.087.172-.117.25-.407 1.052-.587 2.236-1.004 3.346a.516.516 0 0 1-.134-.017c-.026.086.046.106.05.25.055.093-.07.16-.084.268a.309.309 0 0 1 .149.251c-.127.195-.072.942-.318.97-.093-.157-.308-.159-.468-.25-.445-.234-.903-.44-1.372-.62-.052-.022-.442-.182-.452-.198v-.134c-.053-.093-.002-.226-.033-.35-.043-.172-.047-.351-.084-.52-.01-.049.05-.104.017-.183a2.3 2.3 0 0 1-.099-.602c-.018-.052-.04-.101-.067-.149l-.05-.385c-.063-.293-.09-.653-.183-.97-.026-.085.03-.119 0-.217-.024-.077-.068-.198-.084-.284-.004-.018.03-.073.017-.117-.084-.278-.125-.603-.198-.886a1.512 1.512 0 0 1-.034-.234.095.095 0 0 0-.034-.1l-.05-.35c-.023-.074-.099-.196-.116-.285l.016-.167a1.11 1.11 0 0 1-.117-.502 1.186 1.186 0 0 1-.067-.117v-.148c-.01-.04-.054-.115-.066-.15v-.098c-.015-.043-.07-.11-.084-.149l-.017-.198c-.036-.12-.081-.303-.117-.418l.017-.117a.946.946 0 0 1-.117-.385c-.027-.094-.09-.225-.117-.318v-.134c-.01-.03-.059-.103-.067-.134l.017-.116c-.01-.02-.075-.075-.084-.1l.017-.133c-.1-.142-.061-.244-.117-.334-.08-.06-.054-.229-.084-.301-.035-.088-.123-.202-.148-.285a.397.397 0 0 0-.05-.198c-.02-.063.012-.074 0-.117-.012-.043-.07-.113-.084-.149-.006-.04 0-.08.017-.117-.099-.267-.19-.608-.3-.87l-.018-.2a3.084 3.084 0 0 0-.198-.502.222.222 0 0 0-.05-.167v-.16c-.01-.036-.055-.072-.066-.1-.03-.077 0-.136-.034-.198-.06-.06-.046-.142-.067-.199-.016-.045-.065-.066-.084-.099-.005-.01.02-.073 0-.117a.714.714 0 0 1-.117-.267c-.027-.068-.11-.14-.134-.201a.959.959 0 0 0-.033-.198c-.019-.038-.083-.1-.1-.134-.04-.084-.023-.149-.066-.217l-.1-.184a4.211 4.211 0 0 0-.267-.468c-.081-.105-.09-.24-.167-.351-.018-.026-.1-.078-.117-.1-.039-.049-.034-.116-.067-.167a4.294 4.294 0 0 0-.351-.502l-.1-.033a.402.402 0 0 0-.133-.184c-.066-.046-.146-.04-.218-.084L14.406 4a4.718 4.718 0 0 0-.77-.418 5.248 5.248 0 0 0-.651-.149l-.335.017a.744.744 0 0 0-.284.017c-.061.012-.162-.042-.268-.017a.662.662 0 0 1-.167.034h-.2c-.206.063-.455.107-.67.184-.52.211-.996.517-1.405.903-.09.123-.174.252-.25.384-.04.05-.114.082-.15.134-.063.084-.119.174-.166.268l-.067.167c-.104.176-.118.309-.198.351.004-.129.015-.257.033-.385.035-.132.114-.253.167-.401l.05-.134c.098-.22.221-.428.368-.619.037-.05.042-.122.084-.167.041-.045.099-.057.133-.1.042-.07.092-.137.149-.198.053-.04.118-.042.167-.083.05-.042.077-.139.134-.184a6.273 6.273 0 0 1 1.235-.803l.217-.033c.08-.037.204-.109.284-.15.093-.049.184-.011.284-.049.214-.082.48-.152.702-.234.018-.006.419-.05.419-.05a.39.39 0 0 0 .148.018 3.08 3.08 0 0 1 1.405.017c.203.054.446-.006.67.066.313.106.61.252.886.436l.198.067c.274.202.518.443.724.715.066.158-.011.401.05.485a.595.595 0 0 0 .317.1c.072.131.166.257.234.385.04.083.09.162.149.234.024.11.035.222.033.334.032.093.13.135.168.217.079.17.084.315.148.502.015.041.071.108.084.149.015.204.13.163.134.368a.214.214 0 0 0-.05.117.912.912 0 0 1 .184.401c.036.155.086.306.15.452.028.105-.065.236-.05.284.015.065.013.185.066.234.124.065.078.085.15.134a.614.614 0 0 0-.05.117c.12.122-.035.297.016.35.1.175.28.254.351.452.105.294.125.554.199.837v.173c.03.084.088.205.116.3.029.096-.024.226-.016.251.013.041.099.1.117.134l.017.184c.143.336.238.69.284 1.054a.175.175 0 0 0-.084.133c.152.163.148.4.367.486.008.144.041.285.1.417a.183.183 0 0 0 .033.134.388.388 0 0 0 .05.218c.02.1.02.201 0 .3a.245.245 0 0 1 .017.218c.182.126.14.347.217.586.111.234.146.497.1.752.087.034.135.007.166.067.078.127.038.27.084.385.085.2.152.407.201.619.092-.164.166-.313.234-.452.005-.05.016-.1.034-.148.02-.037.082-.073.099-.117 0-.045.006-.09.017-.134.023-.054.099-.114.117-.167l.016-.168c.072-.061.035-.099.05-.133.053-.022.018-.085.034-.117.02-.045.092-.095.117-.149.099-.165.232-.565.3-.702l.067-.1.017-.198a.511.511 0 0 0 .117-.167c0-.017-.036-.063-.017-.1.104-.087.094-.164.134-.217.045-.13.107-.253.184-.368a.124.124 0 0 1 .067-.117.22.22 0 0 1 .067-.133.463.463 0 0 1 .099-.235c.033-.071.012-.124.05-.184.023-.037.099-.081.117-.117.038-.075-.006-.146.033-.217l.067-.1.034-.116a.695.695 0 0 0 .184-.335c.024-.055.094-.107.117-.149.037-.072-.009-.154.033-.217.065-.096.126-.093.117-.234a.979.979 0 0 1 .184-.251c.035-.125.19-.3.134-.401.064-.072.12-.15.168-.235V9.59c.018-.04.095-.096.117-.134.062-.11.06-.25.117-.368.03-.064.107-.116.133-.183.036-.132.08-.26.134-.385l.067-.117c.03-.052.127-.152.149-.198.03-.063.007-.113.033-.168.044-.065.094-.127.149-.184.043-.058.062-.214.099-.284.046-.085.082-.167.134-.267.02-.04.093-.08.117-.117.037-.12.093-.233.167-.335a.373.373 0 0 1 .099-.184c.08-.13.152-.264.217-.401a.857.857 0 0 0 .134-.268c.018-.026.081-.038.1-.067.11-.162.148-.417.267-.568.069-.088.105-.198.184-.318.087-.102.079-.171.117-.234.054-.089.217-.27.25-.35l.084-.199c.059-.034.046-.083.067-.117.039-.063.117-.137.149-.2.018-.1.077-.108.1-.135.043-.05.049-.207.098-.267.144-.175.268-.366.368-.569l.034-.167c.095-.129.174-.27.234-.418l.083-.167a.633.633 0 0 0 .184-.198c.176-.309.337-.614.519-.903.128-.203.28-.554.518-.636.055.066.11.045.117.167l.026.04z"/>
    </g>
</svg>
