<svg width="92" height="57" viewBox="0 0 92 57" fill="none" xmlns="http://www.w3.org/2000/svg">
<path fill-rule="evenodd" clip-rule="evenodd" d="M35.6399 41.4209H16.1592L14.2054 47.2823H16.1592C18.09 47.2823 19.4634 47.7248 20.2852 48.6155C21.107 49.512 21.515 50.6728 21.515 52.1152C21.5675 53.3804 21.1266 54.6166 20.2852 55.5631C19.4634 56.448 18.09 56.8963 16.1592 56.8963H5.35575C3.43067 56.8963 2.05151 56.448 1.22975 55.5573C0.408003 54.6666 0 53.5058 0 52.0692C0 50.6325 0.430989 49.4603 1.29297 48.5523C2.15494 47.6444 3.57433 47.2249 5.55688 47.2881L18.1532 9.65989H12.9124C10.9816 9.65989 9.60243 9.21741 8.78068 8.3267C7.95892 7.43599 7.55092 6.26945 7.55092 4.83282C7.55092 3.39619 7.95892 2.22965 8.78068 1.33894C9.60243 0.448228 10.9816 0 12.9124 0L30.2382 0.0459715L46.202 47.2766C48.0811 47.2766 49.3166 47.5237 49.92 48.0236C50.5084 48.5238 50.9758 49.1507 51.2874 49.8573C51.5989 50.5639 51.7463 51.3319 51.7186 52.1037C51.7186 53.5116 51.3164 54.6609 50.5061 55.5516C49.7016 56.4423 48.3282 56.8905 46.3974 56.8905H35.5997C33.6688 56.8905 32.2954 56.4423 31.4737 55.5516C30.6519 54.6609 30.2382 53.5001 30.2382 52.0577C30.1872 50.7916 30.6302 49.5553 31.4737 48.6098C32.2954 47.7191 33.6688 47.2766 35.5997 47.2766H37.5535L35.6399 41.4151V41.4209ZM32.3127 31.807L25.8593 12.763L19.3658 31.807H32.3127ZM77.9917 55.3447V53.161C76.0954 54.408 73.9979 55.3447 71.6993 55.9653C69.4064 56.5917 67.3204 56.902 65.4471 56.902C61.3785 56.902 58.0685 55.5688 55.5286 52.9082C52.9886 50.2418 51.7186 47.2996 51.7186 44.0815C51.7186 40.1567 53.3392 36.5191 56.5859 33.1574C59.827 29.7957 64.315 28.112 70.0328 28.112C72.3314 28.112 74.9805 28.4165 77.9917 29.0314V26.7903C78.0126 26.1484 77.8927 25.5097 77.6406 24.919C77.3884 24.3283 77.0101 23.8 76.5321 23.3711C75.5552 22.4861 73.6991 22.0494 70.958 22.0494C68.7168 22.0494 65.8034 22.5953 62.2233 23.6871C61.2204 24.0246 60.1766 24.2256 59.1202 24.2848C58.6144 24.2817 58.1167 24.1574 57.6688 23.9225C57.2209 23.6875 56.8358 23.3487 56.5457 22.9343C55.8446 22.0379 55.4941 20.8886 55.4941 19.4922C55.4941 18.6992 55.6148 18.0153 55.8619 17.4407C56.0831 16.8969 56.439 16.4183 56.8963 16.05C57.3445 15.6995 58.2697 15.28 59.6776 14.7915C61.5509 14.1594 63.4645 13.6422 65.4126 13.263C67.3607 12.8837 69.1248 12.6941 70.6994 12.6941C75.4115 12.6941 79.0721 13.9468 81.6752 16.458C84.2784 18.9692 85.5829 22.3942 85.5829 26.7443V45.9951H86.8758C88.6975 45.9951 90.0019 46.4318 90.7835 47.2996C91.5535 48.1615 91.9443 49.2994 91.9443 50.6958C91.9956 51.922 91.5786 53.1218 90.7777 54.0517C90.0019 54.9137 88.6975 55.3504 86.8701 55.3504L77.9917 55.3447ZM77.9917 38.5993C75.2438 37.907 72.4239 37.5405 69.5903 37.5075C66.5102 37.5075 63.8553 38.4327 61.6371 40.2888C60.258 41.4784 59.5684 42.6794 59.5684 43.8919C59.5556 44.3028 59.6388 44.7109 59.8113 45.084C59.9839 45.4571 60.2411 45.7848 60.5625 46.0411C61.798 47.041 63.4875 47.5409 65.631 47.5409C67.4583 47.5409 69.5271 47.1042 71.8314 46.2192C74.0737 45.3749 76.1566 44.1566 77.9917 42.6162V38.5993Z" fill="black"/>
</svg>
