<svg width="76" height="76" viewBox="0 0 76 76" fill="none" xmlns="http://www.w3.org/2000/svg">
<path d="M33.44 6.08V27.36C33.44 28.9725 32.7994 30.519 31.6592 31.6592C30.519 32.7994 28.9725 33.44 27.36 33.44H6.08C4.46748 33.44 2.92101 32.7994 1.78079 31.6592C0.640569 30.519 0 28.9725 0 27.36V6.08C0 4.46748 0.640569 2.92101 1.78079 1.78079C2.92101 0.640569 4.46748 0 6.08 0H27.36C28.9725 0 30.519 0.640569 31.6592 1.78079C32.7994 2.92101 33.44 4.46748 33.44 6.08ZM69.92 0H48.64C47.0275 0 45.481 0.640569 44.3408 1.78079C43.2006 2.92101 42.56 4.46748 42.56 6.08V27.36C42.56 28.9725 43.2006 30.519 44.3408 31.6592C45.481 32.7994 47.0275 33.44 48.64 33.44H69.92C71.5325 33.44 73.079 32.7994 74.2192 31.6592C75.3594 30.519 76 28.9725 76 27.36V6.08C76 4.46748 75.3594 2.92101 74.2192 1.78079C73.079 0.640569 71.5325 0 69.92 0ZM27.36 42.56H6.08C4.46748 42.56 2.92101 43.2006 1.78079 44.3408C0.640569 45.481 0 47.0275 0 48.64V69.92C0 71.5325 0.640569 73.079 1.78079 74.2192C2.92101 75.3594 4.46748 76 6.08 76H27.36C28.9725 76 30.519 75.3594 31.6592 74.2192C32.7994 73.079 33.44 71.5325 33.44 69.92V48.64C33.44 47.0275 32.7994 45.481 31.6592 44.3408C30.519 43.2006 28.9725 42.56 27.36 42.56ZM59.28 42.56C55.9731 42.56 52.7405 43.5406 49.9909 45.3778C47.2413 47.215 45.0982 49.8263 43.8327 52.8815C42.5672 55.9367 42.2361 59.2985 42.8813 62.5419C43.5264 65.7853 45.1188 68.7645 47.4572 71.1028C49.7955 73.4412 52.7747 75.0336 56.0181 75.6787C59.2615 76.3239 62.6233 75.9928 65.6785 74.7273C68.7337 73.4618 71.3449 71.3187 73.1822 68.5691C75.0194 65.8195 76 62.5869 76 59.28C76 54.8456 74.2384 50.5928 71.1028 47.4572C67.9672 44.3216 63.7144 42.56 59.28 42.56Z" fill="black"/>
</svg>
