<svg width="82" height="58" viewBox="0 0 82 58" fill="none" xmlns="http://www.w3.org/2000/svg">
<path d="M39.36 19.5673C39.36 17.5389 39.05 15.5813 38.4728 13.7404C35.9783 5.77972 28.5073 2.25113e-05 19.68 2.25113e-05C15.8854 -0.00571336 12.1709 1.08479 8.98802 3.13895C3.57848 6.62519 0 12.6805 0 19.5673C0 29.9429 8.12128 38.431 18.3885 39.0923C16.2844 46.7211 11.8096 53.3226 5.8384 58C24.4918 57.1456 39.36 41.2903 39.36 21.8559C39.36 21.4222 39.3502 20.99 39.3362 20.5587C39.3518 20.2318 39.36 19.9008 39.36 19.5673ZM82 19.5673C82 17.5389 81.6892 15.5813 81.1128 13.7404C78.6191 5.77972 71.1481 2.25113e-05 62.32 2.25113e-05C58.5254 -0.00571336 54.8109 1.08479 51.628 3.13895C46.2193 6.62519 42.64 12.6805 42.64 19.5673C42.64 29.9429 50.7613 38.431 61.0293 39.0923C58.9252 46.7211 54.4505 53.3226 48.4792 58C67.1326 57.1456 82 41.2903 82 21.8559C82 21.4222 81.9902 20.99 81.9762 20.5587C81.9918 20.2318 82 19.9008 82 19.5673Z" fill="black"/>
</svg>
